<svg version="1" xmlns="http://www.w3.org/2000/svg" width="533.333" height="533.333" viewBox="0 0 400.000000 400.000000"><path d="M85 18.7c-12.8 2.6-26.9 13.1-33.2 24.9-6.4 11.8-6.1 4.2-6.1 154.9 0 152-.3 143.9 6.6 155.3 7.1 11.8 20.8 21.5 32.8 23 3 .4 61.8.7 130.7.7h125.4l3.4-3.7c1.9-2.1 3.4-4.8 3.5-6 .1-2.8.1-35.9 0-37.3-.1-.7-4-1-10.3-1l-10.3.1-.1 13.1c-.1 7.2-.4 13.6-.8 14.1-.3.6-46.8.9-120.8.8l-120.3-.1-4-2.2c-6.5-3.6-10.2-7.4-13.1-13.7-2.3-5.1-2.6-6.7-2.1-12.2.4-3.5 1.3-7.6 2.1-9.2 2.2-4.3 7.9-9.8 12.8-12.4l4.3-2.3 125.3-.1c69-.1 127.3-.5 129.7-.8 2.3-.4 5.1-1.6 6-2.7 1.7-1.8 1.8-9.1 1.8-139.7 0-104.2-.3-138.3-1.2-139.9-.6-1.3-2.1-2.8-3.4-3.5-3.1-1.7-250.3-1.9-258.7-.1zm34.4 40.6l2.4 2.4-.2 100.6c-.1 95.2-.2 100.7-1.9 102.4-2.5 2.5-17.8 2.6-20.3.1-1.5-1.5-1.6-10-1.7-102.9V60.7l2.3-1.9c1.7-1.4 3.9-1.8 9.7-1.8 6.4 0 7.7.3 9.7 2.3z"/></svg>